<?xml version="1.0" standalone="no"?>
<!DOCTYPE svg PUBLIC "-//W3C//DTD SVG 20010904//EN"
 "http://www.w3.org/TR/2001/REC-SVG-20010904/DTD/svg10.dtd">
<svg version="1.0" xmlns="http://www.w3.org/2000/svg"
 width="2048.000000pt" height="2048.000000pt" viewBox="0 0 2048.000000 2048.000000"
 preserveAspectRatio="xMidYMid meet">

<g transform="translate(0.000000,2048.000000) scale(0.100000,-0.100000)"
fill="#000000" stroke="none">
<path d="M10305 13233 c-100 -12 -233 -39 -315 -65 -230 -73 -489 -241 -666
-431 -76 -83 -195 -250 -239 -337 -73 -144 -142 -364 -165 -525 -15 -105 -12
-334 5 -451 75 -501 406 -944 882 -1182 172 -86 365 -131 595 -139 339 -12
603 54 885 220 390 229 653 611 739 1072 28 149 26 432 -5 575 -48 227 -140
440 -267 617 -72 101 -241 270 -349 350 -84 63 -262 166 -342 198 -85 35 -236
72 -362 89 -99 14 -315 19 -396 9z m425 -268 c184 -40 364 -119 513 -226 97
-69 240 -213 310 -311 239 -337 305 -780 176 -1178 -144 -447 -515 -772 -1000
-876 -118 -26 -390 -26 -509 0 -476 103 -838 431 -996 901 -106 317 -77 666
80 979 76 150 140 240 251 351 213 213 456 333 770 379 64 9 332 -3 405 -19z"/>
<path d="M10566 12205 c-9 -25 5 -45 30 -45 29 0 41 24 24 45 -16 19 -46 19
-54 0z m54 -16 c0 -5 -7 -9 -15 -9 -15 0 -20 12 -9 23 8 8 24 -1 24 -14z"/>
<path d="M10867 12083 c-5 -7 -5 -18 -1 -25 4 -7 3 -8 -4 -4 -17 10 -15 -9 2
-24 11 -8 20 -9 33 -1 16 9 16 10 1 11 -11 0 -18 10 -20 28 -2 18 -6 23 -11
15z"/>
<path d="M11111 11994 c0 -11 3 -14 6 -6 3 7 2 16 -1 19 -3 4 -6 -2 -5 -13z"/>
<path d="M11300 11801 c0 -6 4 -13 10 -16 6 -3 7 1 4 9 -7 18 -14 21 -14 7z"/>
<path d="M11055 11720 c-3 -5 1 -10 10 -10 9 0 13 5 10 10 -3 6 -8 10 -10 10
-2 0 -7 -4 -10 -10z"/>
<path d="M11382 11708 c7 -15 15 -23 17 -17 2 6 -4 18 -13 27 -15 15 -15 15
-4 -10z"/>
<path d="M9750 11604 c0 -14 12 -28 60 -70 l45 -39 -49 55 c-27 30 -51 57 -53
59 -2 2 -3 0 -3 -5z"/>
<path d="M9885 11473 c11 -10 26 -30 32 -45 14 -32 38 -36 51 -10 14 26 4 42
-27 42 -14 0 -38 7 -51 16 -25 15 -25 15 -5 -3z"/>
<path d="M11007 11464 c-18 -18 9 -65 36 -63 8 0 8 2 -1 6 -6 2 -9 10 -6 15 4
6 2 8 -4 5 -6 -5 -8 1 -5 14 6 21 6 21 20 -2 l13 -24 -2 25 c-3 25 -35 40 -51
24z"/>
<path d="M11236 11437 c3 -10 9 -15 12 -12 3 3 0 11 -7 18 -10 9 -11 8 -5 -6z"/>
<path d="M11260 11380 c0 -5 5 -10 11 -10 5 0 7 5 4 10 -3 6 -8 10 -11 10 -2
0 -4 -4 -4 -10z"/>
<path d="M9700 11209 c0 -5 5 -7 10 -4 6 3 10 8 10 11 0 2 -4 4 -10 4 -5 0
-10 -5 -10 -11z"/>
<path d="M10140 11196 c0 -2 7 -7 16 -10 8 -3 12 -2 9 4 -6 10 -25 14 -25 6z"/>
<path d="M9951 11024 c0 -11 3 -14 6 -6 3 7 2 16 -1 19 -3 4 -6 -2 -5 -13z"/>
<path d="M10211 10949 c-1 -9 7 -23 17 -30 15 -12 16 -12 6 1 -6 8 -14 22 -17
30 -5 13 -6 12 -6 -1z"/>
<path d="M10251 10874 c0 -11 3 -14 6 -6 3 7 2 16 -1 19 -3 4 -6 -2 -5 -13z"/>
<path d="M10300 10850 c0 -5 5 -10 11 -10 5 0 7 5 4 10 -3 6 -8 10 -11 10 -2
0 -4 -4 -4 -10z"/>
<path d="M10268 10833 c7 -3 16 -2 19 1 4 3 -2 6 -13 5 -11 0 -14 -3 -6 -6z"/>
<path d="M8730 6445 c-12 -15 -10 -108 3 -122 13 -12 105 -15 126 -4 17 10 21
21 21 64 0 29 -5 58 -12 65 -18 18 -123 15 -138 -3z"/>
<path d="M9613 6453 c-17 -6 -17 -115 -1 -131 15 -15 102 -16 129 -2 15 9 19
22 19 63 0 29 -5 58 -12 65 -12 12 -110 16 -135 5z"/>
<path d="M14110 6050 l0 -410 75 0 75 0 0 77 c0 77 0 77 42 120 l41 42 78
-120 78 -119 87 0 86 0 -14 23 c-113 173 -209 329 -206 337 1 5 49 59 106 120
l103 110 -89 0 -89 0 -109 -120 -109 -119 -3 234 -2 235 -75 0 -75 0 0 -410z"/>
<path d="M7826 6405 c9 -28 246 -615 282 -700 l30 -70 73 0 73 0 163 395 c90
217 163 396 163 397 0 2 -38 3 -84 3 -58 0 -85 -4 -89 -12 -2 -7 -50 -130
-106 -273 -56 -143 -105 -268 -109 -279 -6 -14 -38 58 -121 267 l-114 286 -83
3 c-80 3 -84 2 -78 -17z"/>
<path d="M11620 6360 l0 -70 120 0 120 0 0 -325 0 -325 80 0 80 0 0 325 0 325
120 0 120 0 0 70 0 70 -320 0 -320 0 0 -70z"/>
<path d="M9175 6231 c-95 -25 -145 -84 -145 -171 0 -99 42 -141 186 -185 87
-27 114 -47 114 -87 0 -58 -103 -62 -209 -9 l-58 30 -32 -44 -31 -44 37 -26
c21 -14 67 -34 102 -45 182 -57 331 15 331 160 0 90 -58 145 -201 190 -70 21
-99 44 -99 76 0 50 88 56 178 12 l45 -21 18 24 c40 53 45 70 24 85 -57 42
-198 72 -260 55z"/>
<path d="M10122 6225 c-181 -51 -274 -248 -196 -415 53 -114 139 -171 269
-178 65 -3 91 0 136 17 79 30 140 86 174 162 24 55 27 71 23 138 -5 87 -28
141 -85 197 -76 77 -211 110 -321 79z m151 -129 c68 -28 115 -114 103 -190
-31 -191 -286 -194 -321 -3 -25 132 101 243 218 193z"/>
<path d="M10937 6228 c-21 -6 -54 -26 -73 -45 l-34 -34 0 41 0 41 -77 -3 c-55
-2 -78 -7 -77 -15 1 -7 2 -139 3 -293 l1 -280 75 0 75 0 0 201 0 201 31 29
c47 44 118 43 164 -2 l30 -29 3 -200 3 -200 75 0 75 0 -3 223 c-3 208 -4 225
-25 264 -27 50 -73 87 -128 102 -47 13 -66 13 -118 -1z"/>
<path d="M12623 6229 c-19 -5 -51 -31 -77 -61 l-46 -53 0 58 0 58 -72 -3 -73
-3 -3 -292 -2 -293 74 0 75 0 -1 143 c0 155 10 194 64 244 27 26 88 53 118 53
18 0 20 6 20 80 0 89 -2 91 -77 69z"/>
<path d="M12968 6229 c-71 -8 -138 -26 -138 -37 0 -4 6 -29 13 -57 15 -56 12
-55 123 -37 80 13 142 1 171 -33 22 -25 40 -71 31 -80 -2 -2 -24 1 -48 6 -25
6 -81 9 -125 7 -127 -7 -192 -52 -214 -146 -11 -50 1 -113 29 -153 62 -86 253
-93 342 -12 17 15 18 14 18 -15 l0 -32 69 0 69 0 7 137 c13 237 -6 338 -73
395 -61 51 -150 70 -274 57z m165 -330 c34 -9 37 -13 37 -47 0 -48 -21 -77
-72 -103 -102 -52 -215 23 -168 111 24 45 117 63 203 39z"/>
<path d="M13658 6226 c-139 -37 -228 -170 -216 -321 10 -117 71 -204 177 -253
46 -21 71 -26 136 -25 92 0 149 21 204 72 l34 32 -43 44 -43 44 -36 -25 c-168
-114 -347 50 -254 234 43 83 154 103 240 42 l43 -29 37 45 c21 25 38 50 38 57
0 18 -102 75 -157 86 -62 14 -101 13 -160 -3z"/>
<path d="M14928 6227 c-130 -37 -211 -151 -211 -298 -1 -63 4 -86 27 -132 33
-67 100 -130 163 -151 72 -25 187 -21 248 8 56 26 116 83 99 94 -6 4 -27 20
-47 35 l-36 29 -36 -28 c-75 -57 -190 -40 -241 35 -43 63 -46 62 184 61 l207
-1 -1 78 c0 87 -27 154 -81 205 -64 61 -186 89 -275 65z m143 -132 c31 -17 69
-69 69 -96 0 -23 -17 -25 -157 -21 l-123 4 20 38 c42 82 118 112 191 75z"/>
<path d="M15673 6219 c-23 -11 -52 -36 -65 -55 -12 -18 -26 -34 -30 -34 -3 0
-6 21 -5 48 l2 47 -75 0 -75 0 -3 -292 -2 -293 75 0 75 0 0 143 c0 117 4 149
19 182 26 56 72 96 128 110 l48 12 3 77 3 76 -28 0 c-15 0 -47 -9 -70 -21z"/>
<path d="M8730 5935 l0 -295 75 0 75 0 0 295 0 295 -75 0 -75 0 0 -295z"/>
<path d="M9610 5935 l0 -295 73 0 72 0 0 293 0 292 -72 3 -73 3 0 -296z"/>
</g>
</svg>
